<svg xmlns="http://www.w3.org/2000/svg" xmlns:xlink="http://www.w3.org/1999/xlink" viewBox="0 0 2210.59 4315.35"><defs><style>.cls-1{fill:none;}.cls-2{clip-path:url(#clip-path);}.cls-3{fill:#efeff0;}</style><clipPath id="clip-path"><path id="SVGID" class="cls-1" d="M2057.16,4033.6h-1920V157.6h1920Z"/></clipPath></defs><title>290721 - BSB Website Background</title><g id="Layer_2" data-name="Layer 2"><g id="Layer_2-2" data-name="Layer 2"><g class="cls-2"><circle class="cls-3" cx="433.23" cy="65.64" r="15.08"/><path class="cls-3" d="M448.71,422.09h0a.73.73,0,0,1-1,.05L433.41,65.89l1-1.08,14.27,356.25A.72.72,0,0,1,448.71,422.09Z"/><circle class="cls-3" cx="241.73" cy="132.8" r="15.08"/><circle class="cls-3" cx="453.16" cy="420.96" r="15.08"/><circle class="cls-3" cx="708.23" cy="423.61" r="15.08"/><circle class="cls-3" cx="1114.29" cy="18.03" r="15.08"/><polygon class="cls-3" points="708.88 424.56 708.1 423.32 1114 18.14 1114.78 19.37 708.88 424.56"/><circle class="cls-3" cx="75.68" cy="255.06" r="15.08"/><circle class="cls-3" cx="385.84" cy="745.99" r="15.08"/><polygon class="cls-3" points="726.07 572.92 725.48 574.26 386.09 746.17 386.68 744.83 726.07 572.92"/><circle class="cls-3" cx="728.29" cy="570.81" r="15.08"/><polygon class="cls-3" points="386.68 744.83 385.87 746.05 242.28 133.5 243.09 132.28 386.68 744.83"/><circle class="cls-3" cx="23.14" cy="362.97" r="15.08"/><polygon class="cls-3" points="386.46 744.71 385.87 746.05 23.39 363.16 23.98 361.82 386.46 744.71"/><circle class="cls-3" cx="250.99" cy="511.9" r="15.08"/><rect class="cls-3" x="253.98" y="512.17" width="1.46" height="378.56" transform="translate(-16.18 6.09) rotate(-1.33)"/><circle class="cls-3" cx="98.23" cy="747.58" r="15.08"/><path class="cls-3" d="M19.67,654.57h0a.72.72,0,0,0,.54.88l77.71,92.13.34-1.43L20.55,654A.72.72,0,0,0,19.67,654.57Z"/><circle class="cls-3" cx="261.08" cy="899.43" r="15.08"/><circle class="cls-3" cx="18.13" cy="650.24" r="15.08"/><path class="cls-3" d="M249.94,512.92l-.53-1.36L19.07,649.8a.74.74,0,0,0-.41,1h0a.73.73,0,0,0,.95.42Z"/><rect class="cls-3" x="245.19" y="133.46" width="1.46" height="378.56" transform="translate(-7.41 5.78) rotate(-1.33)"/><circle class="cls-3" cx="2157.91" cy="1031.13" r="15.08"/><circle class="cls-3" cx="2183.17" cy="342.65" r="15.08"/><rect class="cls-3" x="2080.04" y="-6.18" width="1.46" height="378.56" transform="translate(227.34 1146.38) rotate(-32.49)"/><circle class="cls-3" cx="2043.04" cy="206.58" r="15.08"/><path class="cls-3" d="M1686.58,222.07h0a.73.73,0,0,1,0-1l356.24-14.27,1.08,1L1687.62,222A.74.74,0,0,1,1686.58,222.07Z"/><circle class="cls-3" cx="1975.87" cy="15.08" r="15.08"/><circle class="cls-3" cx="1687.71" cy="226.51" r="15.08"/><path class="cls-3" d="M2181.73,342.39l.32,1.43L1688.74,226.35a.73.73,0,0,1-.87-.55h0a.74.74,0,0,1,.55-.88Z"/><circle class="cls-3" cx="1685.07" cy="481.58" r="15.08"/><polygon class="cls-3" points="2186.65 336.47 2187.55 337.64 1685.35 481.45 1684.46 480.29 2186.65 336.47"/><circle class="cls-3" cx="2008.08" cy="679.82" r="15.08"/><rect class="cls-3" x="1905.78" y="510.63" width="378.56" height="1.46" transform="translate(673.83 2133.36) rotate(-62.49)"/><circle class="cls-3" cx="2090.65" cy="887.64" r="15.08"/><polygon class="cls-3" points="1684.12 482.23 1685.35 481.45 2090.54 887.35 2089.3 888.13 1684.12 482.23"/><circle class="cls-3" cx="1362.69" cy="159.19" r="15.08"/><polygon class="cls-3" points="1535.76 499.42 1534.42 498.83 1362.5 159.44 1363.84 160.03 1535.76 499.42"/><circle class="cls-3" cx="1537.87" cy="501.64" r="15.08"/><polygon class="cls-3" points="1363.84 160.03 1362.62 159.22 1975.18 15.63 1976.4 16.44 1363.84 160.03"/><circle class="cls-3" cx="1596.77" cy="24.34" r="15.08"/><rect class="cls-3" x="1217.94" y="27.34" width="378.56" height="1.46" transform="translate(-0.27 32.61) rotate(-1.33)"/><circle class="cls-3" cx="1209.25" cy="34.43" r="15.08"/><rect class="cls-3" x="1596.65" y="18.55" width="378.56" height="1.46" transform="translate(0.03 41.38) rotate(-1.33)"/><circle class="cls-3" cx="1334.79" cy="401.2" r="15.08"/><circle class="cls-3" cx="978.4" cy="471.85" r="15.08"/><polygon class="cls-3" points="1335.25 401.77 1334.34 400.62 978.6 471.61 979.51 472.75 1335.25 401.77"/><circle class="cls-3" cx="1052.12" cy="758.09" r="15.08"/><rect class="cls-3" x="1011.65" y="639.9" width="378.56" height="1.46" transform="translate(-137.78 886.57) rotate(-38.49)"/><circle class="cls-3" cx="1228.95" cy="675.12" r="15.08"/><path class="cls-3" d="M1305.54,856.27h0a.71.71,0,0,0,.38-1l-76.79-179.93-1.34.58,76.79,179.93A.73.73,0,0,0,1305.54,856.27Z"/><circle class="cls-3" cx="1182.85" cy="297.08" r="15.08"/><polygon class="cls-3" points="1052.13 758.02 1053.57 758.32 1182.85 297.4 1181.42 297.11 1052.13 758.02"/><polygon class="cls-3" points="975.78 473.01 977.22 473.31 1209.25 34.43 1207.81 34.14 975.78 473.01"/><rect class="cls-3" x="1165.84" y="304.53" width="1.46" height="378.56" transform="translate(543.64 1596.85) rotate(-83.49)"/><circle class="cls-3" cx="1303.03" cy="860.11" r="15.08"/><path class="cls-3" d="M1053.57,758.32l-.77,1.25,249.31,100a.72.72,0,0,0,1-.24h0a.72.72,0,0,0-.24-1Z"/><rect class="cls-3" x="1153.93" y="720.1" width="1.46" height="378.56" transform="translate(-310.09 788.04) rotate(-33.49)"/><circle class="cls-3" cx="1107.76" cy="1133.92" r="15.08"/><rect class="cls-3" x="1079.7" y="757.03" width="1.46" height="378.56" transform="translate(-127.84 169.83) rotate(-8.49)"/><circle class="cls-3" cx="801.07" cy="1041.76" r="15.08"/><rect class="cls-3" x="737.95" y="899.51" width="378.56" height="1.46" transform="translate(-361.44 997.89) rotate(-48.49)"/><circle class="cls-3" cx="807.73" cy="681.75" r="15.08"/><polygon class="cls-3" points="1053.04 759.17 1052.13 758.02 807.93 681.51 808.84 682.66 1053.04 759.17"/><circle class="cls-3" cx="961.97" cy="1303.48" r="15.08"/><rect class="cls-3" x="921.5" y="1185.29" width="378.56" height="1.46" transform="translate(-496.79 948.95) rotate(-38.49)"/><circle class="cls-3" cx="1630.81" cy="1138.29" r="15.08"/><rect class="cls-3" x="1807.16" y="1016.71" width="1.46" height="378.56" transform="translate(40.29 2470.29) rotate(-69.28)"/><circle class="cls-3" cx="1792.61" cy="1247.72" r="15.08"/><path class="cls-3" d="M1850.17,1599.83h0a.73.73,0,0,0,1-.16L1792.49,1248l-1.19-.85,58.7,351.66A.73.73,0,0,0,1850.17,1599.83Z"/><circle class="cls-3" cx="1993.78" cy="1274.4" r="15.08"/><circle class="cls-3" cx="1845.59" cy="1599.64" r="15.08"/><path class="cls-3" d="M1631.36,1139.65l-1.47,0,215.64,459a.74.74,0,0,0,.73.74h0a.74.74,0,0,0,.74-.73Z"/><circle class="cls-3" cx="1596.42" cy="1654.26" r="15.08"/><polygon class="cls-3" points="1636.15 1133.62 1634.83 1132.99 1596.49 1653.96 1597.82 1654.59 1636.15 1133.62"/><circle class="cls-3" cx="1336.45" cy="1378.48" r="15.08"/><rect class="cls-3" x="1294.34" y="1258.24" width="378.56" height="1.46" transform="translate(-461.86 1223.77) rotate(-39.28)"/><rect class="cls-3" x="1444.03" y="914.5" width="1.46" height="378.56" transform="translate(91.53 2318.03) rotate(-79.28)"/><circle class="cls-3" cx="1335.84" cy="931.29" r="15.08"/><polygon class="cls-3" points="1630.36 1139.63 1630.87 1138.27 1336.15 931.34 1335.63 932.71 1630.36 1139.63"/><circle class="cls-3" cx="1116.16" cy="1340.05" r="15.08"/><polygon class="cls-3" points="1595.98 1655.33 1596.49 1653.96 1116.47 1340.1 1115.95 1341.47 1595.98 1655.33"/><circle class="cls-3" cx="2126.87" cy="1025.78" r="15.08"/><circle class="cls-3" cx="2012.83" cy="1184.37" r="15.08"/><path class="cls-3" d="M1841.05,1107.85h0a.73.73,0,0,0,.13,1l171.36,75.36.89-1.17-171.36-75.36A.73.73,0,0,0,1841.05,1107.85Z"/><circle class="cls-3" cx="1841.38" cy="1103.28" r="15.08"/><path class="cls-3" d="M2125.49,1026.29l.06-1.46-283.13,78.42a.74.74,0,0,0-.77.7h0a.75.75,0,0,0,.71.77Z"/><circle class="cls-3" cx="1795.57" cy="855.84" r="15.08"/><path class="cls-3" d="M2131.38,1031.25l.67-1.3L1796.52,856.26a.73.73,0,0,0-1,.31h0a.74.74,0,0,0,.32,1Z"/><circle class="cls-3" cx="1977.8" cy="1904.09" r="15.08"/><polygon class="cls-3" points="1609.42 1804.07 1610.27 1805.26 1977.59 1904.32 1976.74 1903.13 1609.42 1804.07"/><circle class="cls-3" cx="1606.82" cy="1802.46" r="15.08"/><polygon class="cls-3" points="1976.74 1903.13 1977.79 1904.16 1993.39 1275.19 1992.34 1274.16 1976.74 1903.13"/><circle class="cls-3" cx="1258.71" cy="1067.87" r="15.08"/><circle class="cls-3" cx="1575.91" cy="834.43" r="15.08"/><rect class="cls-3" x="1468.07" y="488.72" width="1.46" height="378.56" transform="matrix(0.82, -0.57, 0.57, 0.82, -125.21, 954.02)"/><circle class="cls-3" cx="1505.11" cy="652.38" r="15.08"/><path class="cls-3" d="M1691,588.24h0a.75.75,0,0,0-.94-.45l-184.72,64.43.49,1.38,184.72-64.43A.72.72,0,0,0,1691,588.24Z"/><circle class="cls-3" cx="1210.95" cy="732.46" r="15.08"/><rect class="cls-3" x="1392.82" y="594.17" width="1.46" height="378.56" transform="matrix(0.27, -0.96, 0.96, 0.27, 268.21, 1918.96)"/><circle class="cls-3" cx="1354.86" cy="515.97" r="15.08"/><circle class="cls-3" cx="1694.7" cy="591.01" r="15.08"/><path class="cls-3" d="M1576.23,833l1.2.85,116.72-242a.75.75,0,0,0-.17-1h0a.75.75,0,0,0-1,.18Z"/><rect class="cls-3" x="1708.54" y="779.39" width="1.46" height="378.56" transform="translate(-187.91 1479.19) rotate(-44.6)"/><circle class="cls-3" cx="1791.04" cy="1146.23" r="15.08"/><rect class="cls-3" x="1683.2" y="800.52" width="1.46" height="378.56" transform="translate(-264.22 1131.34) rotate(-34.6)"/><circle class="cls-3" cx="2062.05" cy="1647.42" r="15.08"/><rect class="cls-3" x="2027.69" y="1271.92" width="1.46" height="378.56" transform="translate(-231.28 391.92) rotate(-10.44)"/><circle class="cls-3" cx="969.75" cy="790.71" r="15.08"/><path class="cls-3" d="M595.41,890.45h0a.74.74,0,0,0,1-.16L969.62,791l-1.19-.86L595.25,889.43A.73.73,0,0,0,595.41,890.45Z"/><circle class="cls-3" cx="590.83" cy="890.26" r="15.08"/><path class="cls-3" d="M808.49,682.64l-1.46,0L590.78,889.22a.73.73,0,0,0,.72.74h0a.74.74,0,0,0,.74-.73Z"/><circle class="cls-3" cx="1147.62" cy="1620.04" r="15.08"/><circle class="cls-3" cx="1151.16" cy="1983.34" r="15.08"/><polygon class="cls-3" points="1146.96 1619.71 1148.27 1620.37 1151.35 1983.1 1150.05 1982.44 1146.96 1619.71"/><circle class="cls-3" cx="855.89" cy="1969.58" r="15.08"/><rect class="cls-3" x="751.25" y="1799.2" width="378.56" height="1.46" transform="translate(-1090.08 1830.87) rotate(-63.28)"/><circle class="cls-3" cx="901.04" cy="1779.54" r="15.08"/><path class="cls-3" d="M708.08,1741.51h0a.74.74,0,0,1,.86-.57l191.82,38.47-.3,1.43-191.81-38.46A.73.73,0,0,1,708.08,1741.51Z"/><circle class="cls-3" cx="1280.54" cy="1747.54" r="15.08"/><polygon class="cls-3" points="855.96 1969.55 855.38 1968.21 1280.23 1747.6 1280.81 1748.95 855.96 1969.55"/><rect class="cls-3" x="1090.54" y="1614.33" width="1.46" height="378.56" transform="translate(-510.75 433.43) rotate(-18.28)"/><circle class="cls-3" cx="704.84" cy="1744.76" r="15.08"/><path class="cls-3" d="M855.38,1968.21l-1.07,1L705.5,1745.56a.74.74,0,0,1,0-1h0a.74.74,0,0,1,1,0Z"/><rect class="cls-3" x="686.13" y="1710.78" width="1.46" height="378.56" transform="translate(-1332.49 1835.15) rotate(-68.28)"/><circle class="cls-3" cx="476.62" cy="1991.78" r="15.08"/><rect class="cls-3" x="476.58" y="1979.52" width="378.56" height="1.46" transform="translate(-112.36 41.4) rotate(-3.28)"/><circle class="cls-3" cx="629.41" cy="2273.22" r="15.08"/><rect class="cls-3" x="552.94" y="2120.11" width="378.56" height="1.46" transform="translate(-1401.61 1447.88) rotate(-53.28)"/><circle class="cls-3" cx="980.49" cy="2193.25" r="15.08"/><polygon class="cls-3" points="854.65 1968.89 855.96 1969.55 980.68 2193 979.38 2192.34 854.65 1968.89"/><circle class="cls-3" cx="340.37" cy="2169.1" r="15.08"/><rect class="cls-3" x="235.72" y="1998.72" width="378.56" height="1.46" transform="translate(-1552.07 1480.2) rotate(-63.28)"/><circle class="cls-3" cx="365.63" cy="1480.62" r="15.08"/><rect class="cls-3" x="262.5" y="1131.79" width="1.46" height="378.56" transform="translate(-668.43 348.18) rotate(-32.49)"/><circle class="cls-3" cx="225.5" cy="1344.55" r="15.08"/><circle class="cls-3" cx="158.33" cy="1153.05" r="15.08"/><circle class="cls-3" cx="190.54" cy="1817.79" r="15.08"/><rect class="cls-3" x="88.24" y="1648.6" width="378.56" height="1.46" transform="translate(-1313.52 1133.67) rotate(-62.49)"/><rect class="cls-3" x="436.64" y="1466.44" width="1.46" height="378.56" transform="translate(-600.11 293.25) rotate(-22.49)"/><circle class="cls-3" cx="628.45" cy="1727.16" r="15.08"/><polygon class="cls-3" points="364.41 1481.34 365.64 1480.55 628.35 1726.87 627.11 1727.65 364.41 1481.34"/><circle class="cls-3" cx="273.11" cy="2025.61" r="15.08"/><circle class="cls-3" cx="374.57" cy="972.05" r="15.08"/><polygon class="cls-3" points="44.75 984.14 43.93 982.93 374.28 972.16 375.1 973.38 44.75 984.14"/><circle class="cls-3" cx="242.58" cy="1116.04" r="15.08"/><path class="cls-3" d="M352.54,1268.6h0a.73.73,0,0,1-1,.07L242.77,1116.29l1-1.11,108.73,152.38A.74.74,0,0,1,352.54,1268.6Z"/><circle class="cls-3" cx="36.07" cy="987" r="15.08"/><circle class="cls-3" cx="356.95" cy="1267.34" r="15.08"/><path class="cls-3" d="M374.35,973.5l1.42-.36-19,293.18a.73.73,0,0,1-.53.89h0a.73.73,0,0,1-.89-.53Z"/><circle class="cls-3" cx="608.53" cy="1261.71" r="15.08"/><path class="cls-3" d="M368.29,968.74l1.14-.92,238.5,293a.74.74,0,0,1-.11,1h0a.72.72,0,0,1-1-.11Z"/><circle class="cls-3" cx="510.48" cy="1830.53" r="15.08"/><circle class="cls-3" cx="674.3" cy="1472.37" r="15.08"/><rect class="cls-3" x="848.56" y="1356.04" width="1.46" height="378.56" transform="translate(-904.49 1728.49) rotate(-67.17)"/><circle class="cls-3" cx="866.96" cy="1504.54" r="15.08"/><path class="cls-3" d="M918.5,1083.82h0a.72.72,0,0,1,.62.82l-52,419.61-1.45-.2,52-419.61A.73.73,0,0,1,918.5,1083.82Z"/><circle class="cls-3" cx="848.58" cy="1808.86" r="15.08"/><rect class="cls-3" x="760.68" y="1451.21" width="1.46" height="378.56" transform="translate(-665.08 528.7) rotate(-27.17)"/><circle class="cls-3" cx="1031.16" cy="1623.8" r="15.08"/><circle class="cls-3" cx="915.04" cy="1080.8" r="15.08"/><path class="cls-3" d="M675.63,1471.77l-1.07-1,239.72-389.25a.74.74,0,0,1,1,0h0a.74.74,0,0,1,0,1Z"/><rect class="cls-3" x="514.95" y="1179.93" width="1.46" height="378.56" transform="translate(-914.41 1060.2) rotate(-57.17)"/><circle class="cls-3" cx="325.17" cy="1325.38" r="15.08"/><rect class="cls-3" x="499.43" y="1209.04" width="1.46" height="378.56" transform="translate(-982.68 1316.75) rotate(-67.17)"/><circle class="cls-3" cx="260.09" cy="898.76" r="15.08"/><circle class="cls-3" cx="840.77" cy="2056.87" r="15.08"/><path class="cls-3" d="M819.49,2443.68h0a.72.72,0,0,1,0-1l21.06-385.6,1.08,1-21.06,385.59A.74.74,0,0,1,819.49,2443.68Z"/><circle class="cls-3" cx="820.62" cy="2448.13" r="15.08"/><path class="cls-3" d="M979.46,2192.69l.32,1.43L821.65,2448a.74.74,0,0,1-.88-.56h0a.74.74,0,0,1,.56-.87Z"/><circle class="cls-3" cx="1685.22" cy="4300.27" r="15.08"/><rect class="cls-3" x="1655.5" y="4197.14" width="378.56" height="1.46" transform="translate(-1966.21 1648.02) rotate(-32.49)"/><circle class="cls-3" cx="1821.3" cy="4160.14" r="15.08"/><path class="cls-3" d="M1805.81,3803.68h0a.73.73,0,0,1,1,0l14.27,356.24-1,1.08-14.27-356.24A.74.74,0,0,1,1805.81,3803.68Z"/><circle class="cls-3" cx="2012.8" cy="4092.97" r="15.08"/><circle class="cls-3" cx="1801.37" cy="3804.81" r="15.08"/><path class="cls-3" d="M1685.49,4298.83l-1.44.32,117.47-493.31a.73.73,0,0,1,.56-.87h0a.72.72,0,0,1,.87.55Z"/><circle class="cls-3" cx="1546.3" cy="3802.16" r="15.08"/><polygon class="cls-3" points="1691.4 4303.75 1690.24 4304.64 1546.43 3802.45 1547.59 3801.56 1691.4 4303.75"/><circle class="cls-3" cx="1140.23" cy="4207.75" r="15.08"/><polygon class="cls-3" points="1545.64 3801.21 1546.43 3802.45 1140.53 4207.64 1139.74 4206.4 1545.64 3801.21"/><circle class="cls-3" cx="1868.69" cy="3479.79" r="15.08"/><polygon class="cls-3" points="1528.45 3652.86 1529.04 3651.51 1868.43 3479.6 1867.84 3480.94 1528.45 3652.86"/><circle class="cls-3" cx="1526.24" cy="3654.97" r="15.08"/><polygon class="cls-3" points="1867.84 3480.94 1868.66 3479.72 2012.25 4092.28 2011.43 4093.5 1867.84 3480.94"/><circle class="cls-3" cx="2003.53" cy="3713.87" r="15.08"/><rect class="cls-3" x="1999.08" y="3335.04" width="1.46" height="378.56" transform="translate(-81.11 47.28) rotate(-1.33)"/><circle class="cls-3" cx="1993.45" cy="3326.35" r="15.08"/><rect class="cls-3" x="2007.87" y="3713.75" width="1.46" height="378.56" transform="matrix(1, -0.02, 0.02, 1, -89.88, 47.58)"/><circle class="cls-3" cx="96.62" cy="3194.64" r="15.08"/><circle class="cls-3" cx="71.35" cy="3883.12" r="15.08"/><circle class="cls-3" cx="211.49" cy="4019.2" r="15.08"/><path class="cls-3" d="M567.94,4003.71h0a.73.73,0,0,1,0,1L211.74,4019l-1.08-1,356.25-14.28A.74.74,0,0,1,567.94,4003.71Z"/><circle class="cls-3" cx="566.81" cy="3999.26" r="15.08"/><path class="cls-3" d="M72.79,3883.38l-.31-1.43,493.3,117.47a.73.73,0,0,1,.88.56h0a.73.73,0,0,1-.56.87Z"/><circle class="cls-3" cx="569.46" cy="3744.19" r="15.08"/><polygon class="cls-3" points="67.87 3889.3 66.98 3888.14 569.17 3744.33 570.07 3745.49 67.87 3889.3"/><circle class="cls-3" cx="246.44" cy="3545.95" r="15.08"/><rect class="cls-3" x="-29.81" y="3713.68" width="378.56" height="1.46" transform="translate(-3208.64 2140.21) rotate(-62.49)"/><circle class="cls-3" cx="163.88" cy="3338.13" r="15.08"/><polygon class="cls-3" points="570.41 3743.54 569.17 3744.33 163.99 3338.43 165.22 3337.64 570.41 3743.54"/><circle class="cls-3" cx="891.84" cy="4066.58" r="15.08"/><polygon class="cls-3" points="718.77 3726.35 720.11 3726.94 892.02 4066.33 890.68 4065.74 718.77 3726.35"/><circle class="cls-3" cx="716.66" cy="3724.13" r="15.08"/><circle class="cls-3" cx="1045.28" cy="4191.34" r="15.08"/><circle class="cls-3" cx="919.73" cy="3824.58" r="15.08"/><circle class="cls-3" cx="1276.12" cy="3753.92" r="15.08"/><polygon class="cls-3" points="919.28 3824.01 920.19 3825.15 1275.92 3754.17 1275.01 3753.02 919.28 3824.01"/><circle class="cls-3" cx="1202.41" cy="3467.68" r="15.08"/><rect class="cls-3" x="864.31" y="3584.41" width="378.56" height="1.46" transform="translate(-2002.29 1434.59) rotate(-38.49)"/><circle class="cls-3" cx="1025.57" cy="3550.65" r="15.08"/><path class="cls-3" d="M949,3369.5h0a.74.74,0,0,0-.38,1l76.79,179.93,1.34-.59-76.79-179.93A.73.73,0,0,0,949,3369.5Z"/><circle class="cls-3" cx="1071.68" cy="3928.69" r="15.08"/><polygon class="cls-3" points="1202.39 3467.75 1200.96 3467.46 1071.67 3928.38 1073.11 3928.67 1202.39 3467.75"/><polygon class="cls-3" points="1278.74 3752.76 1277.31 3752.47 1045.28 4191.34 1046.71 4191.64 1278.74 3752.76"/><rect class="cls-3" x="1087.22" y="3542.69" width="1.46" height="378.56" transform="translate(-2743.33 4389.61) rotate(-83.49)"/><circle class="cls-3" cx="951.5" cy="3365.67" r="15.08"/><path class="cls-3" d="M1201,3467.46l.76-1.25-249.3-100.06a.74.74,0,0,0-1,.24h0a.74.74,0,0,0,.24,1Z"/><rect class="cls-3" x="1099.13" y="3127.11" width="1.46" height="378.56" transform="matrix(0.83, -0.55, 0.55, 0.83, -1647.26, 1157.35)"/><circle class="cls-3" cx="1146.77" cy="3091.85" r="15.08"/><rect class="cls-3" x="1173.36" y="3090.18" width="1.46" height="378.56" transform="translate(-471.17 209.2) rotate(-8.49)"/><circle class="cls-3" cx="1453.46" cy="3184.01" r="15.08"/><rect class="cls-3" x="1138.02" y="3324.8" width="378.56" height="1.46" transform="translate(-2042.61 2115.32) rotate(-48.49)"/><circle class="cls-3" cx="1446.79" cy="3544.02" r="15.08"/><polygon class="cls-3" points="1201.48 3466.6 1202.39 3467.75 1446.59 3544.26 1445.68 3543.12 1201.48 3466.6"/><circle class="cls-3" cx="1292.56" cy="2922.29" r="15.08"/><rect class="cls-3" x="954.47" y="3039.02" width="378.56" height="1.46" transform="translate(-1643.29 1372.21) rotate(-38.49)"/><circle class="cls-3" cx="623.72" cy="3087.49" r="15.08"/><rect class="cls-3" x="445.9" y="2830.51" width="1.46" height="378.56" transform="translate(-2535.87 2369.16) rotate(-69.28)"/><circle class="cls-3" cx="461.91" cy="2978.06" r="15.08"/><path class="cls-3" d="M404.35,2625.94h0a.73.73,0,0,0-1,.17L462,2977.77l1.19.86L404.52,2627A.73.73,0,0,0,404.35,2625.94Z"/><circle class="cls-3" cx="260.74" cy="2951.37" r="15.08"/><circle class="cls-3" cx="408.94" cy="2626.14" r="15.08"/><path class="cls-3" d="M623.17,3086.13h1.46L409,2627.18a.72.72,0,0,0-.72-.74h0a.72.72,0,0,0-.74.72Z"/><circle class="cls-3" cx="658.1" cy="2571.51" r="15.08"/><polygon class="cls-3" points="618.38 3092.15 619.7 3092.79 658.03 2571.82 656.71 2571.18 618.38 3092.15"/><circle class="cls-3" cx="918.08" cy="2847.29" r="15.08"/><rect class="cls-3" x="581.62" y="2966.07" width="378.56" height="1.46" transform="translate(-1704.16 1158.41) rotate(-39.28)"/><rect class="cls-3" x="809.03" y="2932.72" width="1.46" height="378.56" transform="translate(-2408.37 3336.95) rotate(-79.28)"/><circle class="cls-3" cx="918.69" cy="3294.48" r="15.08"/><polygon class="cls-3" points="624.17 3086.14 623.65 3087.51 918.38 3294.43 918.89 3293.07 624.17 3086.14"/><circle class="cls-3" cx="1138.37" cy="2885.72" r="15.08"/><polygon class="cls-3" points="658.55 2570.45 658.03 2571.82 1138.06 2885.67 1138.58 2884.3 658.55 2570.45"/><circle class="cls-3" cx="127.66" cy="3199.99" r="15.08"/><polygon class="cls-3" points="72.22 2874.64 70.86 2874.08 127.71 3199.68 129.07 3200.24 72.22 2874.64"/><circle class="cls-3" cx="241.7" cy="3041.4" r="15.08"/><path class="cls-3" d="M413.48,3117.92h0a.73.73,0,0,0-.14-1L242,3041.54l-.89,1.16,171.36,75.36A.73.73,0,0,0,413.48,3117.92Z"/><circle class="cls-3" cx="73.24" cy="2865.56" r="15.08"/><circle class="cls-3" cx="413.15" cy="3122.5" r="15.08"/><path class="cls-3" d="M129,3199.48l-.06,1.46,283.14-78.42a.73.73,0,0,0,.76-.7h0a.73.73,0,0,0-.7-.76Z"/><circle class="cls-3" cx="458.96" cy="3369.93" r="15.08"/><path class="cls-3" d="M123.15,3194.52l-.68,1.3L458,3369.52a.73.73,0,0,0,1-.32h0a.72.72,0,0,0-.31-1Z"/><circle class="cls-3" cx="276.72" cy="2321.68" r="15.08"/><polygon class="cls-3" points="645.11 2421.7 644.26 2420.51 276.93 2321.45 277.78 2322.64 645.11 2421.7"/><circle class="cls-3" cx="647.71" cy="2423.32" r="15.08"/><polygon class="cls-3" points="277.78 2322.64 276.74 2321.62 261.14 2950.58 262.18 2951.61 277.78 2322.64"/><polygon class="cls-3" points="277.59 2322.81 276.74 2321.62 0 2770.41 0.85 2771.6 277.59 2322.81"/><circle class="cls-3" cx="995.82" cy="3157.9" r="15.08"/><circle class="cls-3" cx="678.61" cy="3391.34" r="15.08"/><rect class="cls-3" x="784.99" y="3358.49" width="1.46" height="378.56" transform="translate(-1875.7 1073.74) rotate(-34.6)"/><circle class="cls-3" cx="749.41" cy="3573.39" r="15.08"/><path class="cls-3" d="M563.49,3637.53h0a.72.72,0,0,0,.93.45l184.72-64.42-.49-1.38L563.93,3636.6A.72.72,0,0,0,563.49,3637.53Z"/><circle class="cls-3" cx="1043.57" cy="3493.31" r="15.08"/><rect class="cls-3" x="860.24" y="3253.05" width="1.46" height="378.56" transform="translate(-2686.4 3358.38) rotate(-74.6)"/><circle class="cls-3" cx="899.66" cy="3709.8" r="15.08"/><circle class="cls-3" cx="559.83" cy="3634.77" r="15.08"/><path class="cls-3" d="M678.29,3392.77l-1.19-.85-116.72,242a.72.72,0,0,0,.17,1h0a.73.73,0,0,0,1-.17Z"/><rect class="cls-3" x="544.52" y="3067.83" width="1.46" height="378.56" transform="translate(-2130.04 1320.91) rotate(-44.6)"/><circle class="cls-3" cx="463.48" cy="3079.54" r="15.08"/><rect class="cls-3" x="569.86" y="3046.7" width="1.46" height="378.56" transform="translate(-1736.69 896.42) rotate(-34.6)"/><circle class="cls-3" cx="32.56" cy="3102.87" r="15.08"/><circle class="cls-3" cx="192.47" cy="2578.36" r="15.08"/><rect class="cls-3" x="156.71" y="2202.75" width="1.46" height="378.56" transform="translate(-431.02 68.17) rotate(-10.44)"/><circle class="cls-3" cx="123.28" cy="2196.92" r="15.08"/><rect class="cls-3" x="225.37" y="2575.29" width="1.46" height="378.56" transform="matrix(0.98, -0.18, 0.18, 0.98, -497.41, 86.79)"/><circle class="cls-3" cx="1284.78" cy="3435.07" r="15.08"/><path class="cls-3" d="M1659.11,3335.32h0a.72.72,0,0,0-1,.17l-373.19,99.29,1.19.85,373.19-99.29A.73.73,0,0,0,1659.11,3335.32Z"/><circle class="cls-3" cx="1663.69" cy="3335.52" r="15.08"/><path class="cls-3" d="M1446,3543.13l1.47,0,216.25-206.59a.73.73,0,0,0-.73-.74h0a.73.73,0,0,0-.74.72Z"/><circle class="cls-3" cx="1106.91" cy="2605.74" r="15.08"/><circle class="cls-3" cx="1103.37" cy="2242.43" r="15.08"/><polygon class="cls-3" points="1107.56 2606.07 1106.26 2605.41 1103.17 2242.67 1104.48 2243.33 1107.56 2606.07"/><circle class="cls-3" cx="1398.63" cy="2256.2" r="15.08"/><rect class="cls-3" x="1124.72" y="2425.11" width="378.56" height="1.46" transform="translate(-1443.61 2509) rotate(-63.28)"/><circle class="cls-3" cx="1353.48" cy="2446.24" r="15.08"/><path class="cls-3" d="M1546.45,2484.26h0a.73.73,0,0,1-.87.57l-191.81-38.47.3-1.43,191.81,38.47A.73.73,0,0,1,1546.45,2484.26Z"/><circle class="cls-3" cx="973.99" cy="2478.23" r="15.08"/><polygon class="cls-3" points="1398.57 2256.22 1399.14 2257.57 974.3 2478.17 973.72 2476.82 1398.57 2256.22"/><rect class="cls-3" x="1162.52" y="2232.89" width="1.46" height="378.56" transform="translate(-701.18 487.24) rotate(-18.28)"/><circle class="cls-3" cx="1549.69" cy="2481.02" r="15.08"/><path class="cls-3" d="M1399.15,2257.57l1.06-1L1549,2480.21a.75.75,0,0,1,0,1h0a.74.74,0,0,1-1,0Z"/><rect class="cls-3" x="1566.93" y="2136.44" width="1.46" height="378.56" transform="matrix(0.37, -0.93, 0.93, 0.37, -1173.04, 2921.61)"/><circle class="cls-3" cx="1777.9" cy="2233.99" r="15.08"/><rect class="cls-3" x="1399.39" y="2244.79" width="378.56" height="1.46" transform="translate(-126.04 94.7) rotate(-3.28)"/><circle class="cls-3" cx="1625.12" cy="1952.55" r="15.08"/><rect class="cls-3" x="1323.03" y="2104.2" width="378.56" height="1.46" transform="translate(-1079.15 2058.79) rotate(-53.28)"/><circle class="cls-3" cx="1274.04" cy="2032.53" r="15.08"/><polygon class="cls-3" points="1399.88 2256.88 1398.57 2256.22 1273.84 2032.77 1275.15 2033.43 1399.88 2256.88"/><circle class="cls-3" cx="1914.16" cy="2056.67" r="15.08"/><rect class="cls-3" x="1640.24" y="2225.59" width="378.56" height="1.46" transform="translate(-981.62 2859.67) rotate(-63.28)"/><circle class="cls-3" cx="1888.89" cy="2745.15" r="15.08"/><rect class="cls-3" x="1990.56" y="2715.42" width="1.46" height="378.56" transform="translate(-1248.63 1524.32) rotate(-32.49)"/><circle class="cls-3" cx="2029.03" cy="2881.23" r="15.08"/><circle class="cls-3" cx="2096.19" cy="3072.72" r="15.08"/><circle class="cls-3" cx="2063.98" cy="2407.98" r="15.08"/><rect class="cls-3" x="1787.73" y="2575.71" width="378.56" height="1.46" transform="translate(-1221.29 3139.9) rotate(-62.49)"/><rect class="cls-3" x="1816.42" y="2380.78" width="1.46" height="378.56" transform="translate(-844.93 890.61) rotate(-22.49)"/><circle class="cls-3" cx="1626.07" cy="2498.61" r="15.08"/><polygon class="cls-3" points="1890.12 2744.43 1888.88 2745.22 1626.18 2498.91 1627.41 2498.12 1890.12 2744.43"/><circle class="cls-3" cx="1981.42" cy="2200.16" r="15.08"/><circle class="cls-3" cx="1879.96" cy="3253.73" r="15.08"/><polygon class="cls-3" points="2209.77 3241.63 2210.59 3242.84 1880.25 3253.61 1879.43 3252.4 2209.77 3241.63"/><circle class="cls-3" cx="2011.94" cy="3109.74" r="15.08"/><path class="cls-3" d="M1902,2957.18h0a.73.73,0,0,1,1-.08l108.73,152.38-1,1.11-108.74-152.38A.72.72,0,0,1,1902,2957.18Z"/><circle class="cls-3" cx="1897.57" cy="2958.43" r="15.08"/><path class="cls-3" d="M1880.17,3252.28l-1.42.36,19-293.18a.73.73,0,0,1,.53-.89h0a.73.73,0,0,1,.89.53Z"/><circle class="cls-3" cx="1645.99" cy="2964.07" r="15.08"/><path class="cls-3" d="M1886.23,3257l-1.13.92-238.5-293a.73.73,0,0,1,.1-1h0a.74.74,0,0,1,1,.11Z"/><circle class="cls-3" cx="1744.04" cy="2395.24" r="15.08"/><circle class="cls-3" cx="1580.22" cy="2753.4" r="15.08"/><rect class="cls-3" x="1404.5" y="2491.18" width="1.46" height="378.56" transform="translate(-1610.47 2935.57) rotate(-67.17)"/><circle class="cls-3" cx="1387.56" cy="2721.23" r="15.08"/><path class="cls-3" d="M1336,3142h0a.75.75,0,0,1-.63-.83l52-419.6,1.45.2-52.05,419.6A.73.73,0,0,1,1336,3142Z"/><circle class="cls-3" cx="1405.94" cy="2416.92" r="15.08"/><rect class="cls-3" x="1492.38" y="2396" width="1.46" height="378.56" transform="translate(-1015.76 967.06) rotate(-27.17)"/><circle class="cls-3" cx="1223.37" cy="2601.97" r="15.08"/><circle class="cls-3" cx="1339.48" cy="3144.97" r="15.08"/><path class="cls-3" d="M1578.89,2754l1.07,1-239.72,389.25a.72.72,0,0,1-1,0h0a.72.72,0,0,1,0-1Z"/><rect class="cls-3" x="1738.11" y="2667.29" width="1.46" height="378.56" transform="matrix(0.54, -0.84, 0.84, 0.54, -1604.19, 2768.99)"/><circle class="cls-3" cx="1929.36" cy="2900.39" r="15.08"/><rect class="cls-3" x="1753.63" y="2638.17" width="1.46" height="378.56" transform="translate(-1532.28 3347.31) rotate(-67.17)"/><circle class="cls-3" cx="1994.43" cy="3327.01" r="15.08"/><circle class="cls-3" cx="1413.75" cy="2168.9" r="15.08"/><path class="cls-3" d="M1435,1782.09h0a.74.74,0,0,1,0,1L1414,2168.72l-1.08-1L1434,1782.14A.73.73,0,0,1,1435,1782.09Z"/><circle class="cls-3" cx="1433.91" cy="1777.65" r="15.08"/><path class="cls-3" d="M1275.06,2033.09l-.31-1.43,158.13-253.85a.73.73,0,0,1,.87.55h0a.73.73,0,0,1-.56.88Z"/></g></g></g></svg>